<?xml version="1.0" standalone="no"?>
<!DOCTYPE svg PUBLIC "-//W3C//DTD SVG 20010904//EN"
 "http://www.w3.org/TR/2001/REC-SVG-20010904/DTD/svg10.dtd">
<svg version="1.0" xmlns="http://www.w3.org/2000/svg"
 width="500.000000pt" height="500.000000pt" viewBox="0 0 500.000000 500.000000"
 preserveAspectRatio="xMidYMid meet">

<g transform="translate(0.000000,500.000000) scale(0.100000,-0.100000)"
fill="#000000" stroke="none">
<path d="M1090 3360 l0 -110 930 0 930 0 0 110 0 110 -930 0 -930 0 0 -110z"/>
<path d="M2127 3010 c-104 -18 -260 -80 -386 -154 -34 -20 -64 -36 -67 -36 -2
0 -4 29 -4 65 l0 65 -175 0 -175 0 0 -679 0 -680 173 -90 172 -90 6 442 c3
260 10 456 16 477 95 317 388 600 623 600 104 0 210 -77 210 -152 0 -111 -167
-262 -312 -283 -27 -4 -48 -9 -48 -11 0 -2 61 -74 136 -159 l136 -154 42 26
c126 79 250 202 291 290 76 159 -25 352 -238 457 -141 70 -259 89 -400 66z"/>
<path d="M3680 2939 c-322 -34 -583 -268 -660 -591 -90 -377 48 -735 353 -914
201 -117 476 -144 691 -67 102 37 186 81 186 98 0 8 -19 52 -41 98 l-42 84
-56 -34 c-167 -101 -414 -110 -591 -21 -409 204 -404 865 9 1082 172 90 333
89 529 -4 45 -22 85 -41 89 -42 4 -2 26 41 49 95 l43 99 -83 39 c-143 66 -318
95 -476 78z"/>
</g>
</svg>
